{
	"asset":{
		"generator":"Khronos glTF Blender I/O v4.3.47",
		"version":"2.0"
	},
	"scene":0,
	"scenes":[
		{
			"name":"Scene",
			"nodes":[
				0
			]
		}
	],
	"nodes":[
		{
			"mesh":0,
			"name":"food_apple_01"
		}
	],
	"materials":[
		{
			"doubleSided":true,
			"name":"food_apple_01",
			"normalTexture":{
				"index":0
			},
			"pbrMetallicRoughness":{
				"baseColorTexture":{
					"index":1
				},
				"metallicFactor":0,
				"metallicRoughnessTexture":{
					"index":2
				}
			}
		}
	],
	"meshes":[
		{
			"name":"apple_50k_uv.001",
			"primitives":[
				{
					"attributes":{
						"POSITION":0,
						"NORMAL":1,
						"TEXCOORD_0":2
					},
					"indices":3,
					"material":0
				}
			]
		}
	],
	"textures":[
		{
			"sampler":0,
			"source":0
		},
		{
			"sampler":0,
			"source":1
		},
		{
			"sampler":0,
			"source":2
		}
	],
	"images":[
		{
			"mimeType":"image/jpeg",
			"name":"food_apple_01_nor_gl_2k",
			"uri":"food_apple_01_nor_gl_2k.jpg"
		},
		{
			"mimeType":"image/jpeg",
			"name":"food_apple_01_diff_2k",
			"uri":"food_apple_01_diff_2k.jpg"
		},
		{
			"mimeType":"image/jpeg",
			"name":"food_apple_01_rough_2k",
			"uri":"food_apple_01_rough_2k.jpg"
		}
	],
	"accessors":[
		{
			"bufferView":0,
			"componentType":5126,
			"count":1524,
			"max":[
				0.049179207533597946,
				0.08534617722034454,
				0.050063807517290115
			],
			"min":[
				-0.04837336391210556,
				3.6011129850521684e-05,
				-0.0457998625934124
			],
			"type":"VEC3"
		},
		{
			"bufferView":1,
			"componentType":5126,
			"count":1524,
			"type":"VEC3"
		},
		{
			"bufferView":2,
			"componentType":5126,
			"count":1524,
			"type":"VEC2"
		},
		{
			"bufferView":3,
			"componentType":5123,
			"count":6306,
			"type":"SCALAR"
		}
	],
	"bufferViews":[
		{
			"buffer":0,
			"byteLength":18288,
			"byteOffset":0,
			"target":34962
		},
		{
			"buffer":0,
			"byteLength":18288,
			"byteOffset":18288,
			"target":34962
		},
		{
			"buffer":0,
			"byteLength":12192,
			"byteOffset":36576,
			"target":34962
		},
		{
			"buffer":0,
			"byteLength":12612,
			"byteOffset":48768,
			"target":34963
		}
	],
	"samplers":[
		{
			"magFilter":9729,
			"minFilter":9987
		}
	],
	"buffers":[
		{
			"byteLength":61380,
			"uri":"apple.bin"
		}
	]
}
